<svg xmlns="http://www.w3.org/2000/svg" 
    xml:space="preserve" 
    viewBox="0 0 270.9 270.9">

<g fill="currentColor" stroke="none" stroke-width="2">
    <path d="M131.2 231.9a885.6 885.6 0 0 1-9.2-1l-2.8-.6-3.2-1a53 53 0 0 1-10.6-5.2c-1.2-.9-3-2.2-3.8-3l-1.7-1.6-2.2-3-2.2-3-1.1-2.3-1-2.3v-1l1.5-.2h4.9l2 1.9a52.2 52.2 0 0 0 15.1 8.9 64.7 64.7 0 0 0 9.7 2l2.1.3 4-.2 3.9-.2 2.1-.5a53.7 53.7 0 0 0 8.4-3 69.4 69.4 0 0 0 11-7.2 76.3 76.3 0 0 0 10.3-10.7l.4-.3.5.4.5.3v1.3a65 65 0 0 1-2 9 118 118 0 0 1-3.8 7.2l-1.3 2-1.7 1.6a51 51 0 0 1-3.8 3.1l-2 1.5-3 1.5a58 58 0 0 1-19 5.3h-2zm-9-19.3a19.6 19.6 0 0 1-11.3-5.7 31.2 31.2 0 0 1-8.3-13.3l-.3-1a11.6 11.6 0 0 0-1.1-2.8l-.2-.6a108.2 108.2 0 0 1-6.4-24V164l-.3-.2-.5.1-.9.3h-.5V163l1-1.1a29.7 29.7 0 0 1 5.6-5.2 69.4 69.4 0 0 1 10.9-5.3c1-.4 3-1 4.5-1.3l2.6-.7 2.3-.2 2.4-.1-.4-.7a17.6 17.6 0 0 0-4.4-4 26 26 0 0 1-2.5-1.6l-2-2-.8-1.2-.1-1.1-.1-1.2.4-.9c.2-.4.8-1.1 1.3-1.5a16 16 0 0 1 6-2.8l2.5-.6h8l2.4.6 2.4.6 2.7 1.3 2.6 1.3 1.1 1.2 1.1 1.2v1.6c0 .4-.3 1-.6 1.4l-.5.7-4.6 2.8-4.6 2.7-1.2 1.1-1.2 1.2.2.2 2.3.5a65.4 65.4 0 0 1 15.6 5 93.7 93.7 0 0 1 8 4.7 38.6 38.6 0 0 1 4.2 4.1l.3 1-.4.4-.5.2-1.6-.3a5 5 0 0 0-1.7-.1l-.2 1.5-.5 2.4-1 3.5a352.6 352.6 0 0 1-4.2 15.8 42.4 42.4 0 0 1-6.2 14.5l-1.6 2.4-1.4 1.4a24.6 24.6 0 0 1-5.8 4c-1 .5-2.7 1.2-3.8 1.5l-2.2.7h-6.5zm-4.6-14.1a40.2 40.2 0 0 1 3-6.2l1.2-1.3a10.7 10.7 0 0 1 3.8-2.4l1.1-.4.6.1.6.2.4 1c.3.5.7 2 .9 3.2l.4 2.2.7-1.2 2-2.9 1.2-1.5 1.4-.7 1.4-.7h2.4l3.4.1 1 .2.5-1.8a26.4 26.4 0 0 0 1.2-6.5l.3-4 .2-2.3-.4-2.4-.6-3.3-.3-1-2-.9a55.4 55.4 0 0 0-10.8-3.4l-3.2-.7h-9.8l-3 .7-4.7 1.1c-1 .3-2.5 1-3.4 1.4l-1.7.9-.2 1.8a45 45 0 0 0 .3 10.3 70.3 70.3 0 0 0 2.6 11l.7 1.7a40.1 40.1 0 0 0 6.8 11l.7.7.2-.6c0-.4.6-2 1.1-3.4zm-31.9 8.2a25.6 25.6 0 0 1-10.6-6.3 84.5 84.5 0 0 1-7.7-7.5l-2.4-3.2-2.2-4.2-1.5-3.8a100.2 100.2 0 0 1-2.6-10.9l-.6-3.2-.2-4.5-.1-4.5.3-2.9a2627.6 2627.6 0 0 0 .5-6.3l-.8-.2-2.9.4c-1.2.3-4.1.7-6.5 1l-4.2.5h-9.3l-2.4-.4-3.8-.8a30.8 30.8 0 0 1-9.4-6.2l-1-1-1.4-3-1.5-2.8-.1-2-.1-1.8.4-2.4 1-4.3a26.7 26.7 0 0 1 4.7-7.6 72 72 0 0 1 6.4-6.3 53.3 53.3 0 0 1 8.4-5.3 99 99 0 0 0 5.6-3.1l2.9-1.4a60.5 60.5 0 0 1 14-4.1 84.5 84.5 0 0 1 7.8-.2 56.8 56.8 0 0 1 15.8 3.8 11.7 11.7 0 0 0 2.7-3l.2-.6-.6-.3-1.6-1.5a26 26 0 0 1-4.3-6.4 36.9 36.9 0 0 1-2.8-8.4l-.4-2.3.2-2.2.1-2.3.5-1.7A24.8 24.8 0 0 1 82.5 63a32.4 32.4 0 0 1 11.6-7.4l1.7-.6 2.5-.1 2.4-.1.3-1a25.2 25.2 0 0 1 3.2-5.6 21 21 0 0 1 10-6.1l2.3-.6 3.4-.3 3.3-.2 1.4.1a38.8 38.8 0 0 1 8.2 2.2 32.7 32.7 0 0 1 5.9 3.7s.9-.7 1.7-1.6a22.5 22.5 0 0 1 7.7-5c.7-.3 2.3-.8 3.5-1l2.1-.3H159l1.4.4 2.4.9c.5.2 1.5 1 2.2 1.5a33.5 33.5 0 0 1 5 4.8 21.5 21.5 0 0 1 2.8 5.5l.6 1.2 2-1.2c1-.7 2.2-1.3 2.6-1.5.4-.2 1.6-.5 2.6-.6l2-.3H188.2l1.9.5a24.4 24.4 0 0 1 6 2.7 34 34 0 0 1 6.1 6.3 19.4 19.4 0 0 1 3 7.6l.2 1.7-.2 2a21.7 21.7 0 0 1-1.4 5.5l2.4.3c1.3 0 3.1.3 4 .5.8.2 2.3.7 3.3 1.2l1.8.9 1.5 1.4 2.2 2.6c.4.6 1 2 1.4 3l.5 1.8.2 2 .1 2-.2 1.3c-.2.7-.2 1.3-.1 1.4l2.5-.6 2.4-.7 2.7-.3 2.8-.3 2.8.4 2.8.4 2 .8a61.8 61.8 0 0 1 7.6 3.6l1.7 1.1 1 1.1 2.2 2.9a24.6 24.6 0 0 1 3.3 7.5l.5 2 .3 3 .2 3-.4 2.4a35.7 35.7 0 0 1-2.7 8.9c-.6 1-1.4 2.4-2 3a36.6 36.6 0 0 1-6.5 6.3 43.3 43.3 0 0 1-13 5.7l-1.7.4-4.5.2-4.6.3-2.6-.3c-1.4 0-3-.2-3.6-.3a521.5 521.5 0 0 0-11.5-2.5h-.4l.2 1 .3 4.3.2 3.4-.3 3.4-.3 3.4-1 4.3-1.9 6.6a53.6 53.6 0 0 1-6.2 13 121.7 121.7 0 0 1-8.1 10.4 45.3 45.3 0 0 1-9.4 7.4 16.6 16.6 0 0 1-4.9 1.9c-.2 0-.5-.2-.6-.4l-.3-.3.4-.7a132.9 132.9 0 0 0 12.2-17.7 48.7 48.7 0 0 0 4.2-9.6 87.3 87.3 0 0 0 3.1-11.2 89.7 89.7 0 0 0-1.4-31.1 47.3 47.3 0 0 0-3.8-9.2 161.2 161.2 0 0 0-7.3-12.4c-.5-.7-2.2-2.7-3.8-4.3l-2.8-3-.7.4-2 .9a31.6 31.6 0 0 1-7.2 1.3l-2.7.1-2.3-.4-2.4-.4-1.8-.7a32 32 0 0 1-3.6-1.8l-1.8-1.1-2.9-2.9-3-2.8-.7.4-2 .9c-.6.3-1.8.6-2.6.7l-1.4.2-2.4-.2-2.4-.2-1.6-.6c-1-.4-2.3-1-3-1.5l-1.2-.9-.2.2-1.8 2.5c-.9 1.3-2.1 2.8-2.8 3.4a25.4 25.4 0 0 1-9.5 5.4c-.8.3-2.4.6-3.5.7l-2 .2-2.2-.2c-1.2 0-2.5-.3-2.9-.4l-4.3-2-3.6-1.6-.4.1-1.9 2.2a87.2 87.2 0 0 0-10.8 19 104 104 0 0 0-6.3 19.5l-.7 3.4-.1 6-.2 5.9.3 4.1.3 4.2.6 3.1a56.8 56.8 0 0 0 5.4 15.8 111 111 0 0 0 6.5 10.8 61.5 61.5 0 0 0 5.6 6.7l1.4 1.3 2.1 1.3 2.2 1.2v.4l-.2.7-.3.4H91l-2.8.1zm-46.4-64.4a52.8 52.8 0 0 0 9-2.2 88.8 88.8 0 0 0 13.2-6c.6-.2 1.1-.6 1.3-.7l2-3.8a176.7 176.7 0 0 1 6.5-11.9l-1-.3c-.5 0-2.1-.4-3.6-.8l-2.8-.6H52.7l-3 .6a85 85 0 0 0-6.4 1.7l-3.4 1.2-2.7 1.4c-1.5.7-3.4 1.8-4.1 2.4a61.3 61.3 0 0 0-5.9 7c-.3.7-.7 1.9-.8 2.7l-.3 1.5.3 1.4.3 1.3 1 1.2.9 1.2 1.2.7a21.5 21.5 0 0 0 4.8 2l1.8.2 2.9-.3zm189-10a31 31 0 0 0 4.4-1c1-.3 2.6-1 3.6-1.5l2-1 2-2 1.9-2 .7-1.5.8-1.5.2-1.8v-2.4l-.4-1.9a12 12 0 0 0-1.2-2.4l-1.8-2.4a15.8 15.8 0 0 0-5.8-3.7l-3.2-1-1.6-.4h-4.4l-4.4.2-3 .9a51.7 51.7 0 0 0-8 3.3c-.3.3-1.2.8-2 1.2l-2.1 1.3c-.5.4-1.8 1.2-3 1.8l-2.2 1h-1.2c-.6 0-1.8-.1-2.8-.4a37.3 37.3 0 0 1-6-2.1l-1.3-.5 1.9 2.2a52 52 0 0 1 7.8 13l.3.7 1.2.6a26.4 26.4 0 0 0 7 2.3 104.2 104.2 0 0 0 9.6 1.4 60.5 60.5 0 0 0 11-.3zm-28.8-29.8c.4-.3 1.4-1.2 2-2l1.4-1.4.4-1.2.4-1.3v-2.4l-.4-.8-.8-1.2c-.2-.3-1-.8-1.8-1.3-.8-.4-2.1-1-3-1.2l-1.3-.4-1.3.2c-.8 0-2.4.5-3.7 1l-2.4.8-.5-.2-.6-.3-.1-.8-.2-.9.8-4.5.9-7 .1-2.4-.3-1.3c-.1-.7-.6-2-1-2.8l-.8-1.6-1.5-1.1a15 15 0 0 0-3-1.7l-1.4-.5h-3.1l-1.4.4-1.3.4-.7.8a51 51 0 0 0-3.1 4.2l-2.4 3.4-1.5 1-1.5 1h-.6c-.3 0-.5 0-.5-.2l.7-3 .7-2.7v-3.7l-.3-1.4a25 25 0 0 0-1.3-3.1l-.8-1.7-1.6-1.5-1.6-1.5-1.6-.8-1.7-.8-1.7-.3-1.7-.2-1.7.2-1.7.2-1.2.7-2.5 1.9-1.3 1.2-1.6 2.2-1.6 2.3-1 2.8a220.8 220.8 0 0 0-2.4 6.2l-.6.4-.4-2.2a33.3 33.3 0 0 0-4-11.5l-1.6-2.4a12 12 0 0 0-2.5-1.6l-2-1h-2l-2-.2-1.6.3-1.6.3-1.8.9-1.7.8-1.5 1.6c-.8 1-1.8 2.1-2.1 2.7l-.6 1-.3 1.5-.2 1.5.2 2.4a40 40 0 0 0 1.1 6.3l.6 1.5.3 1.4.2 1h-.2c-.2 0-1.2-1-2.3-2-1-1.2-2.9-3-4-3.9l-2-1.8-1-.4a17.5 17.5 0 0 0-5.2-1.2l-2 .4-2 .7-1.9 1.2-1 .8L93 74l-.7 2.4A47 47 0 0 0 92 81l-.2 3.5.6 1.9 1.3 3.3c.4.8 1.2 1.9 1.7 2.3l1 1 1.8.8 1.8.8 1.6.3 1.6.3 1.7-.2c1 0 2.5-.4 3.5-.6l3.7-1.5 2-1 1.9-1.5a35.6 35.6 0 0 0 6.1-6.8l.7-1.2.6.1 2.2.5c1 .2 3.3.6 5.3.8l3.5.4 3.5-.1 4.6-.3 1-.2 2 1.8c1 1 2.4 2.2 3.2 2.7a32 32 0 0 0 6.5 3.1c.9.3 2.9.8 4.4 1l2.7.6h10.2l1.2-.4 2.8-1.4 1.7-1 1.2-1.3 1.1-1.3.3.2c0 .1.3 1 .4 2.1.2 1 .5 2.6.8 3.4l.5 1.5 1.2 1.4a27 27 0 0 0 9.8 6.6c.5.2 1.9.3 3 .3h2.2zm-25.7 29-.2-1.1-1-1.9c-.5-1-1.4-2.5-2-3.2-.5-.7-1.7-1.8-2.5-2.5a15 15 0 0 0-2.8-1.6l-1.4-.6h-1.2l-3.3.4-2.2.5-1.5.8-1.5.8-1.2 1.2-1.2 1.2-.6 1.5-.6 1.6h-.9l-.2-1.1c-.1-.6-.2-2.3-.1-3.8l.1-2.8.7-2 1.3-3.1 1.8-2.3c.7-.6 1.8-1.6 2.6-2 .8-.5 2-1 2.7-1.2l1.3-.3h4.8l1.9.6 1.9.7 1.3.9c.7.4 2 1.5 2.7 2.3l1.4 1.4 1 2a21 21 0 0 1 1.4 3.5l.4 1.5v4l-.5 1.8a17 17 0 0 1-1.1 2.9c-.3.6-.7 1.1-.9 1.1h-.3zm-89-4.2V125l.2-2.2.8-2 1.5-3.1a15 15 0 0 1 2-2.4c.7-.8 2-1.8 2.9-2.4a19 19 0 0 1 3-1.5l1.4-.5 2.8-.2h2.9l2 .4 2 .5 1.7 1 2.3 1.6c.4.4 1.3 1.4 1.9 2.3.6 1 1.4 2.5 1.7 3.4.4.9.7 2 .8 2.7l.1 1-.7.7c-.4.4-1 .7-1.2.7l-2.5-1.2a39.2 39.2 0 0 0-7.4-2.9l-1.1-.2-3 .2-2.8.3-1.8.4-1.8.5-1.9 1.3c-1 .7-2.6 2-3.4 2.8-.9 1-1.7 1.6-1.9 1.6-.2 0-.4-.1-.5-.4z" />
    </g>
    </svg>